<?xml version="1.0" standalone="no"?>
<!DOCTYPE svg PUBLIC "-//W3C//DTD SVG 20010904//EN"
 "http://www.w3.org/TR/2001/REC-SVG-20010904/DTD/svg10.dtd">
<svg version="1.0" xmlns="http://www.w3.org/2000/svg"
 width="361.000000pt" height="361.000000pt" viewBox="0 0 361.000000 361.000000"
 preserveAspectRatio="xMidYMid meet">

<g transform="translate(0.000000,361.000000) scale(0.100000,-0.100000)"
fill="#000000" stroke="none">
<path d="M1878 3443 l-1218 -3 0 -1319 0 -1318 227 -144 c125 -79 233 -145
240 -147 11 -3 13 153 13 817 0 452 2 821 4 821 4 0 76 -45 429 -268 l87 -55
0 -826 0 -826 121 -77 120 -76 120 75 119 75 0 828 0 828 252 158 c139 88 255
160 260 162 4 2 9 -367 10 -821 l3 -825 235 148 235 147 3 1107 c1 608 0 1106
-3 1106 -3 0 -110 -66 -238 -146 -562 -354 -974 -608 -992 -611 -13 -3 -129
65 -332 194 -172 109 -340 215 -373 236 l-60 37 0 125 0 125 763 0 762 0 233
233 c207 207 246 253 208 245 -6 -2 -559 -4 -1228 -5z"/>
</g>
</svg>
