<svg xmlns="http://www.w3.org/2000/svg" style="display:none">
  <!-- Documentos -->
  <symbol id="icon-docs" viewBox="0 0 24 24">
    <path stroke="none" d="M0 0h24v24H0z" fill="none"/>
    <path d="M9 5h-2a2 2 0 0 0 -2 2v12a2 2 0 0 0 2 2h10a2 2 0 0 0 2 -2v-12a2 2 0 0 0 -2 -2h-2"/>
    <path d="M9 3m0 2a2 2 0 0 1 2 -2h2a2 2 0 0 1 2 2v0a2 2 0 0 1 -2 2h-2a2 2 0 0 1 -2 -2z"/>
    <path d="M9 12h6"/>
    <path d="M9 16h6"/>
  </symbol>

  <!-- Inicios -->
  <symbol id="icon-home" viewBox="0 0 24 24">
    <path stroke="none" d="M0 0h24v24H0z" fill="none"/>
    <path d="M5 12l-2 0l9 -9l9 9l-2 0"/>
    <path d="M5 12v7a2 2 0 0 0 2 2h10a2 2 0 0 0 2 -2v-7"/>
    <path d="M9 21v-6a2 2 0 0 1 2 -2h2a2 2 0 0 1 2 2v6"/>
  </symbol>

  <!-- Componentes -->
  <symbol id="icon-component" viewBox="0 0 24 24">
    <path stroke="none" d="M0 0h24v24H0z" fill="none"/>
    <path d="M3 12l3 3l3 -3l-3 -3z"/>
    <path d="M15 12l3 3l3 -3l-3 -3z"/>
    <path d="M9 6l3 3l3 -3l-3 -3z"/>
    <path d="M9 18l3 3l3 -3l-3 -3z"/>
  </symbol>
</svg>
